<svg id="Capa_1" data-name="Capa 1" xmlns="http://www.w3.org/2000/svg" viewBox="0 0 42.09 42.09"><defs><style>.cls-1{fill:#fff;stroke:#000;stroke-miterlimit:10;stroke-width:0.25px;}</style></defs><title>iconousuario</title><path class="cls-1" d="M23.08,1.16A20.92,20.92,0,1,0,44,22.08,20.92,20.92,0,0,0,23.08,1.16Zm0,40A19.12,19.12,0,1,1,42.2,22.08,19.12,19.12,0,0,1,23.08,41.2Z" transform="translate(-2.04 -1.04)"/><circle class="cls-1" cx="23.08" cy="22.08" r="17.06" transform="translate(-5.25 39.18) rotate(-78.34)"/><circle class="cls-1" cx="23.08" cy="22.08" r="17.7" transform="translate(-5.7 38.52) rotate(-76.89)"/><circle class="cls-1" cx="23.08" cy="22.08" r="17.06" transform="translate(-5.25 39.18) rotate(-78.34)"/><path d="M18.61,27.09a1.24,1.24,0,0,0-.14.55c-.15.77-.9,1.27-1.58,1.67-2.24,1.31-4.48,2.59-6.67,4a17.06,17.06,0,0,0,26.18-.55l-5.67-3c-.45-.23-.9-.46-1.36-.64a3.59,3.59,0,0,1-1.06-.51c-.47-.4-.36-1-.48-1.58a.91.91,0,0,0-.17-.42c-.22-.28-.67-.27-.92-.53a.88.88,0,0,1-.19-.6.68.68,0,0,1,.07-.4c.08-.14.26-.21.38-.31a3.91,3.91,0,0,1,.41-.3,1.76,1.76,0,0,0,.71-.77,6.41,6.41,0,0,0,.4-1.62,5.82,5.82,0,0,1,.17-1.77c.24-.52.72-.75.83-1.35a3.06,3.06,0,0,0-.2-1.64,2.8,2.8,0,0,0-.39-.56c-.13-.2,0-.44,0-.67A6.45,6.45,0,0,0,28.7,14a4.61,4.61,0,0,0-.19-.73,2.48,2.48,0,0,0-1-1.18c-.23-.14-.48-.2-.71-.33a5.5,5.5,0,0,0-.77-.38,12.92,12.92,0,0,0-1.81-.63,5.5,5.5,0,0,0-3.69.19,2,2,0,0,0-1.23,1.45,2.05,2.05,0,0,0-2.27.91,3.51,3.51,0,0,0-.4,2c0,.62.25,1.19.34,1.82a.69.69,0,0,1-.05.51c-.08.12-.23.19-.3.31a.57.57,0,0,0-.07.31,3.76,3.76,0,0,0,.34,2.28,1,1,0,0,0,.22.25,1.16,1.16,0,0,0,.22.13,1.9,1.9,0,0,1,.72,1,11.15,11.15,0,0,1,.2,1.13c.08.3.18.63.29.93a1.51,1.51,0,0,0,.44.57c.19.18.3.39.58.47a.76.76,0,0,0,.06.16,1.1,1.1,0,0,1,.07.44,1.51,1.51,0,0,1-.15.94C19.31,26.86,18.83,26.77,18.61,27.09Z" transform="translate(-2.04 -1.04)"/></svg>