<svg id="Capa_1" data-name="Capa 1" xmlns="http://www.w3.org/2000/svg" viewBox="0 0 39.93 40.19"><defs><style>.cls-1{fill:none;stroke:#fff;stroke-miterlimit:10;stroke-width:2.31px;fill-rule:evenodd;}</style></defs><title>iconowhatsapp</title><path class="cls-1" d="M32.36,25.63c-.45-.25-2.68-1.46-3.1-1.63s-.73-.26-1.06.19S27,25.65,26.67,26s-.55.33-1,.08A12.63,12.63,0,0,1,22,23.59a14,14,0,0,1-2.46-3.3c-.25-.47,0-.72.24-.94s.48-.52.72-.78a2.94,2.94,0,0,0,.5-.76A.89.89,0,0,0,21,17c-.11-.24-.95-2.55-1.3-3.49s-.74-.8-1-.81-.57-.06-.88-.07a1.67,1.67,0,0,0-1.26.53A5.18,5.18,0,0,0,14.8,17a9,9,0,0,0,1.71,4.86c.22.32,3,5.26,7.65,7.29s4.66,1.41,5.51,1.37a4.74,4.74,0,0,0,3.21-2.09,3.81,3.81,0,0,0,.35-2.19c-.11-.2-.41-.33-.87-.57ZM23.86,3.36A18.15,18.15,0,0,0,8.32,30.87L5.05,40.6l10-3.21a18.14,18.14,0,1,0,8.77-34Z" transform="translate(-3.22 -2.21)"/></svg>