<svg id="Capa_1" data-name="Capa 1" xmlns="http://www.w3.org/2000/svg" viewBox="0 0 20.67 43"><defs><style>.cls-1{fill:none;stroke:#fff;stroke-miterlimit:10;stroke-width:2.31px;fill-rule:evenodd;}</style></defs><title>iconofacebook</title><path class="cls-1" d="M16.69,22.81V42.49a.5.5,0,0,0,.5.51h7.09a.5.5,0,0,0,.49-.51v-20h5.15a.49.49,0,0,0,.49-.47l.5-6a.5.5,0,0,0-.5-.55H24.77V11.17a1.79,1.79,0,0,1,1.77-1.81h4a.5.5,0,0,0,.5-.51v-6a.5.5,0,0,0-.5-.51H23.8a7.22,7.22,0,0,0-7.11,7.33v5.81H13.14a.5.5,0,0,0-.5.51v6a.5.5,0,0,0,.5.51h3.55Z" transform="translate(-11.49 -1.15)"/></svg>