<svg id="Capa_1" data-name="Capa 1" xmlns="http://www.w3.org/2000/svg" viewBox="0 0 39.26 42.32"><defs><style>.cls-1{fill:none;stroke:#fff;stroke-miterlimit:10;stroke-width:2.31px;}</style></defs><title>iconoinstagram</title><path class="cls-1" d="M32.7,11.16a2.26,2.26,0,0,0-2.17,2.35,2.17,2.17,0,1,0,4.33,0A2.26,2.26,0,0,0,32.7,11.16Z" transform="translate(-3.36 -1.98)"/><path class="cls-1" d="M23.07,14.25c-4.53,0-8.21,4-8.21,8.89S18.54,32,23.07,32s8.2-4,8.2-8.89S27.59,14.25,23.07,14.25Z" transform="translate(-3.36 -1.98)"/><path class="cls-1" d="M30.37,43.15H15.62c-6.12,0-11.1-5.4-11.1-12v-16c0-6.62,5-12,11.1-12H30.37c6.12,0,11.1,5.4,11.1,12v16C41.47,37.75,36.49,43.15,30.37,43.15Z" transform="translate(-3.36 -1.98)"/></svg>